# xmcd
#
# Track frame offsets:
#	150
#	19509
#	40668
#	59577
#
# Disc length: 1030 seconds
#
# Revision: 0
# Processed by: cddbd v1.4PL0 Copyright (c) Steve Scherf et al.
# Submitted via: dBpowerAMP V4.0
#
DISCID=29040404
DTITLE=Chalice - Mulle meeldib see/Preilisid on tegelt ka niisama vaadata hea
DYEAR=2003
DGENRE=Rap
TTITLE0=Mulle meeldib see
TTITLE1=Preilisid on tegelt ka niisama vaadata hea
TTITLE2=Bänd mu isa juubelilt
TTITLE3=Proov 1,2 (feat. Lil' J)
EXTD=
EXTT0=
EXTT1=
EXTT2=
EXTT3=
PLAYORDER=
